<svg xmlns="http://www.w3.org/2000/svg" width="249" zoomAndPan="magnify" viewBox="0 0 186.75 135.75" height="181" preserveAspectRatio="xMidYMid meet" xmlns:v="https://vecta.io/nano"><defs><clipPath id="A"><path d="M54.965 30.398h73.465v77.211H54.965zm0 0" clip-rule="nonzero"/></clipPath></defs><path fill="#e7b10a" d="M82.473 85.742c-.02.027-.031.051-.047.078l-.332.008 3.707-15.805c.035-.156 0-.32-.098-.445s-.254-.203-.414-.203h-1.961l4.219-16.723c.063-.238.277-.41.523-.41h11.949a.53.53 0 0 1 .465.27c.047.082.145.297.004.539l-7.926 14.043a.52.52 0 0 0 .004.527c.094.16.266.262.453.262h2.594L82.473 85.742"/><g clip-path="url(#A)"><path fill="#e7b10a" d="M82.094 85.828l3.707-15.805c.035-.156 0-.32-.098-.445s-.254-.203-.414-.203h-1.961l4.219-16.723c.063-.238.277-.41.523-.41h11.949a.53.53 0 0 1 .465.27c.047.082.145.297.004.539l-7.926 14.043a.52.52 0 0 0 .004.527c.094.16.266.262.453.262h2.594L82.473 85.742c-.02.027-.031.051-.047.078zm19.305-33.848c-.293-.496-.805-.793-1.379-.793H88.07a1.6 1.6 0 0 0-1.547 1.207l-4.383 17.379c-.039.156-.004.324.098.453s.25.203.414.203h1.969l-3.555 15.156a1.04 1.04 0 0 0 .199.891 1.05 1.05 0 0 0 .824.398h.336a1.06 1.06 0 0 0 .922-.543l13.73-18.664a.53.53 0 0 0 .047-.555c-.09-.176-.27-.285-.469-.285h-2.734l7.488-13.258c.281-.5.277-1.094-.012-1.59zm1.688 51.27a1.84 1.84 0 0 1-1.309 1.758c-3.262.965-6.652 1.453-10.066 1.453-11.773 0-22.781-5.82-29.453-15.566-.098-.148-.262-.23-.434-.23a.52.52 0 0 0-.203.039l-1.879.789c-.035.016-.07.012-.105-.012s-.043-.055-.039-.098l1.367-10.875c.008-.039.027-.066.066-.086s.074-.012.105.016l8.734 6.621c.035.027.047.059.043.102s-.027.066-.066.082l-2.027.855a.51.51 0 0 0-.305.348.52.52 0 0 0 .086.453c5.781 7.672 14.566 12.066 24.109 12.066 3.063 0 6.098-.465 9.016-1.387.555-.172 1.141-.078 1.609.27a1.81 1.81 0 0 1 .75 1.477zm-.129-4.254c-.738-.543-1.668-.695-2.547-.422a28.93 28.93 0 0 1-8.699 1.336c-8.984 0-17.273-4.035-22.852-11.105l1.398-.59c.387-.164.648-.508.703-.926s-.117-.816-.453-1.07l-8.734-6.621c-.332-.254-.762-.309-1.152-.145a1.14 1.14 0 0 0-.699.926L58.551 91.25c-.055.418.117.816.449 1.07s.766.305 1.152.145l1.484-.625c6.887 9.824 18.094 15.676 30.074 15.676 3.52 0 7.008-.504 10.363-1.496 1.215-.359 2.066-1.496 2.066-2.77v-1.926a2.85 2.85 0 0 0-1.184-2.328zm20.008-6.836l-10.781 2.5c-.012.004-.043.012-.074-.023s-.02-.062-.016-.074l3.223-10.582c.004-.012.012-.043.059-.055.047 0 .066.016.07.023l1.68 1.793c.113.121.277.184.445.164a.54.54 0 0 0 .398-.262c2.57-4.535 3.93-9.676 3.93-14.859 0-10.512-5.355-20.105-14.328-25.664a2.03 2.03 0 0 1-.949-1.719v-3.465c0-.344.18-.652.473-.836.289-.176.629-.187.926-.035 11.953 6.168 19.379 18.32 19.379 31.719 0 6.848-1.969 13.516-5.684 19.285a.52.52 0 0 0 .059.645l1.23 1.316c.008.008.031.031.016.074s-.043.051-.055.055zm-.145-1.867c3.684-5.855 5.633-12.594 5.633-19.508 0-13.793-7.645-26.309-19.949-32.656-.621-.32-1.355-.293-1.961.074a2.02 2.02 0 0 0-.977 1.734v3.465c0 1.059.555 2.063 1.449 2.613 8.66 5.367 13.828 14.625 13.828 24.77a29.07 29.07 0 0 1-3.445 13.703l-1.18-1.258c-.281-.301-.684-.422-1.082-.332s-.711.383-.828.773l-3.223 10.582c-.121.395-.027.805.254 1.105a1.13 1.13 0 0 0 .82.355.98.98 0 0 0 .262-.031l10.781-2.5c.398-.09.707-.379.828-.773a1.11 1.11 0 0 0-.258-1.098zm-66.77-18.082a34.57 34.57 0 0 1-.031-1.426c0-9.562 3.754-18.551 10.563-25.305 6.746-6.695 15.656-10.367 25.125-10.367l.281.004a.54.54 0 0 0 .379-.156c.098-.098.156-.234.156-.371v-2.836a.14.14 0 0 1 .074-.129c.035-.02.086-.035.148 0l9.363 5.402c.063.039.078.09.078.133s-.016.094-.078.129l-9.363 5.406c-.059.035-.113.016-.148 0-.035-.023-.074-.059-.074-.133v-1.426c0-.137-.062-.277-.16-.375s-.23-.156-.371-.156a30.01 30.01 0 0 0-21.523 8.75 29.95 29.95 0 0 0-8.949 21.43 26.46 26.46 0 0 0 .027 1.25 1.68 1.68 0 0 1-.465 1.242c-.316.328-.742.512-1.203.512h-2.156c-.898 0-1.633-.691-1.672-1.578zm5.793 1.793a2.71 2.71 0 0 0 .758-2.016c-.02-.398-.027-.797-.027-1.203 0-7.82 3.066-15.164 8.641-20.684a28.93 28.93 0 0 1 20.254-8.445v.906c0 .438.223.824.602 1.043s.828.219 1.203 0l9.363-5.402a1.19 1.19 0 0 0 .602-1.043c0-.437-.223-.828-.602-1.047l-9.363-5.402c-.375-.219-.828-.219-1.203 0a1.19 1.19 0 0 0-.602 1.043v2.305c-9.66.063-18.742 3.84-25.629 10.672-7.012 6.957-10.875 16.207-10.875 26.055 0 .492.012.984.031 1.473.063 1.449 1.262 2.586 2.727 2.586h2.156a2.69 2.69 0 0 0 1.965-.84"/></g></svg>