<svg xmlns="http://www.w3.org/2000/svg" width="249" zoomAndPan="magnify" viewBox="0 0 186.75 135.75" height="181" preserveAspectRatio="xMidYMid meet" xmlns:v="https://vecta.io/nano"><defs><clipPath id="A"><path d="M57.668 41h71.215v53.676H57.668zm0 0" clip-rule="nonzero"/></clipPath></defs><g clip-path="url(#A)"><path fill="#e7b10a" d="M119.543 70.027a1.25 1.25 0 0 0-1.746-.277c-.562.402-.684 1.184-.281 1.742l2.543 3.484c.402.559 1.188.68 1.746.277s.684-1.184.277-1.742zm3.453-4.742l4.109 1.332c.656.211 1.363-.148 1.574-.801s-.148-1.359-.805-1.57l-4.109-1.332a1.25 1.25 0 0 0-1.574.801 1.25 1.25 0 0 0 .805 1.57zm.773-8.23l4.109-1.332c.656-.211 1.012-.918.801-1.57s-.918-1.016-1.574-.801l-4.109 1.332a1.25 1.25 0 0 0-.805 1.57c.215.656.918 1.012 1.578.801zm-4.227-7.113l2.539-3.488c.406-.555.281-1.336-.277-1.742s-1.344-.277-1.746.277l-2.543 3.488c-.402.559-.281 1.34.281 1.742s1.34.281 1.746-.277zm-7.609-3.277v-4.309c0-.691-.562-1.25-1.254-1.25s-1.254.559-1.254 1.25v4.309c0 .691.563 1.25 1.254 1.25s1.254-.559 1.254-1.25zm-8.09 1.813l-2.539-3.484a1.26 1.26 0 0 0-1.75-.281 1.25 1.25 0 0 0-.277 1.746l2.543 3.484c.402.559 1.188.68 1.746.277a1.25 1.25 0 0 0 .277-1.742zm-5.48 6.203l-4.109-1.332c-.656-.211-1.363.148-1.574.801s.148 1.359.801 1.57l4.109 1.332c.656.211 1.363-.145 1.578-.801a1.25 1.25 0 0 0-.805-1.57zm-29.922 7.258h41.273l7.766 29.84H60.676zm42.238-2.496H67.477a1.25 1.25 0 0 0-1.234 1.031l-8.391 32.242c-.172.668.227 1.344.895 1.52l.313.043h60.039c.691 0 1.254-.559 1.254-1.25a1.19 1.19 0 0 0-.07-.41l-8.395-32.242c-.145-.559-.652-.93-1.207-.934zM80.77 70.18v-6.082H70.117l-1.578 6.082zm2.273-6.082v6.082h12.07v-6.082zm14.348 0v6.082h12.227l-1.578-6.082zm12.82 8.352h-12.82v7.848h14.859zm-15.098 7.848v-7.848h-12.07v7.848zm-14.344 0v-7.848h-12.82l-2.043 7.848zm0 2.27H65.316l-1.844 7.051h17.293v-7.051zm2.273 0v7.051h12.07v-7.051zm14.348 0v7.051h17.293l-1.84-7.051zm5.141-24.754h8.148a2.89 2.89 0 0 1 2.789 2.156l1.836 7.043.656 2.531c.863-.48 1.684-1.098 2.445-1.859 6.875-6.855 1.969-18.594-7.727-18.594a10.92 10.92 0 0 0-10.707 8.727h2.559zm0 0" fill-rule="evenodd"/></g></svg>